<?xml version="1.0" encoding="UTF-8"?><svg id="_图层_1" xmlns="http://www.w3.org/2000/svg" viewBox="0 0 998 998"><defs><style>.cls-1{fill:#fff;}</style></defs><circle class="cls-1" cx="499" cy="499" r="499"/><g id="IJqOia.tif"><path d="M123.012,357.893c5.9446-41.0542,18.5538-79.6217,40.5121-115.1902,26.1181-42.3066,60.0095-77.2966,98.3825-108.3277,2.783-2.2505,6.3893-6.1216,9.7188-2.2434,2.9606,3.4484-.5582,7.0818-2.9216,10.0074-24.9265,30.8567-44.5104,64.9044-58.9906,101.7147-18.9913,48.2782-28.3997,97.3526-9.69,148.3465,11.0471,30.1093,31.1727,53.9223,51.5416,77.7352,33.5888,39.2677,76.5104,65.9974,120.8246,91.0879,27.6971,15.682,31.8279,26.0498,25.1738,57.4315-5.2874,24.9359-15.9539,48.1221-23.9219,72.1881-3.8494,11.6265-8.3429,23.1944-10.5949,35.1559-2.7776,14.7532,4.9213,20.8937,19.2726,15.996,8.742-2.9833,17.1865-7.1564,25.2791-11.6662,25.9831-14.4797,48.8138-33.3947,71.8209-52.0298,1.6428-1.3306,3.1525-2.8578,4.9128-4.0036,2.7692-1.8025,5.935-4.7145,9.1013-2.1218,3.1515,2.5806,1.183,6.4589-.1928,9.4054-8.4096,18.0105-16.5618,36.1638-25.6702,53.8205-18.6281,36.1107-38.3772,71.5783-64.9029,102.725-7.6818,9.0202-15.3157,18.1763-25.7268,24.2253-21.718,12.6183-44.4728,7.1074-58.3544-14.4498-18.9978-29.5021-24.1251-62.9548-25.4568-97.0038-1.3655-34.9137,4.7646-69.0981,13.8343-102.7065,5.8138-21.5434,5.9128-21.0881-14.1021-32.2435-62.2226-34.6799-114.0678-79.942-146.7175-144.7292-13.1499-26.0936-18.8447-54.1404-23.1319-82.6456v-30.4782Z"/><path d="M872.988,407.8962c-.9804,37.7757-5.8146,78.3767-21.8658,116.8723-17.477,41.9148-50.0456,71.8827-82.2832,101.8591-17.6313,16.3946-36.414,31.5628-54.8721,47.0519-9.674,8.1179-10.2022,16.5635-2.6798,26.3657,14.4231,18.7944,28.913,37.5487,42.8494,56.7022,13.453,18.4891,26.0958,37.5443,33.7019,59.399,5.2761,15.1603,6.8461,30.4927-4.9486,43.0412-12.2594,13.0429-28.599,11.48-44.0531,7.4804-26.5446-6.8696-48.084-23.0049-67.7283-41.1262-42.7707-39.4546-76.4164-86.9704-113.6868-131.2808-1.8273-2.1725-4.5155-4.9159-1.6403-7.707,2.515-2.4415,5.6905-.4717,8.2298.8451,13.8976,7.2066,27.5808,14.8377,41.595,21.8055,17.8064,8.8533,35.7802,17.3837,53.8684,25.6448,3.8576,1.7619,8.9424,5.856,12.6846,1.1126,2.9152-3.6952-.8146-8.0539-2.7608-11.6593-16.555-30.6678-38.2014-57.8565-58.8659-85.7117-2.9751-4.0105-7.9959-7.6345-6.0519-13.1288,1.9262-5.4442,7.9247-3.7547,12.3174-4.2739,60.6643-7.1703,108.2948-35.7676,143.2602-85.9578,29.0235-41.661,33.101-88.099,25.4217-136.1038-6.9507-43.4506-23.2609-83.8037-46.1547-121.534-5.7246-9.4344-11.4139-10.4453-21.813-7.5826-35.9315,9.8916-62.744,34.493-92.1812,54.8697-12.1641,8.4201-23.6375,17.8315-35.5667,26.5993-8.9987,6.6139-16.154,13.2736-17.7878,25.9968-1.5713,12.2368-13.3877,19.0052-22.532,26.3876q-15.9801,12.9011-9.2216,31.6643c27.3866,76.0356,23.2634,149.4827-18.5839,219.6753-9.2617,15.5353-14.277,15.9035-23.8838.6354-28.2642-44.9203-41.1515-93.2-31.8137-146.517,4.5932-26.2261,7.4349-52.7544,11.5575-79.0694,1.8674-11.9201-1.4557-20.8282-12.1029-26.6826-19.0054-10.4502-23.6936-27.4907-21.9412-47.4832,1.2648-14.4295,4.5733-28.6166,9.552-42.0013,9.5535-25.6835-.3026-45.2631-17.0761-63.2785-9.4954-10.1985-20.4755-19.1214-26.9013-31.8824-3.2389-6.4321-7.6496-13.3843-2.0939-20.0862,6.0689-7.3209,14.275-4.3388,21.0475-.9636,24.9641,12.4414,44.9159,28.1714,43.7879,60.444-.5074,14.5188,4.6495,28.3583,18.4696,36.9555,7.4008,4.6039,5.7084,9.1447-.7461,13.4824-11.5117,7.7362-17.406,19.561-21.5003,32.1324-6.7488,20.7222,9.2916,39.0925,30.9405,35.8968,7.9948-1.1802,11.3266-6.6008,11.8401-14.2239.7759-11.5184-.7729-22.7942-3.2938-33.9995-.9592-4.2635-1.6555-9.7724,4.4776-9.6131,18.0553.4691,25.4742-13.2137,34.1113-24.8698,11.5921-15.644,22.4643-31.803,37.0754-44.9424,3.4679-3.1186,6.6803-6.5065,11.3313-7.9057,9.5216-2.8645,15.6577,1.2786,16.7395,11.2391,2.0114,18.5201-9.6389,29.9519-21.8241,40.5988-8.972,7.8394-17.8052,15.6384-24.3818,25.6384-3.4943,5.3132-8.4614,12.4554-3.1833,17.0247,3.8227,3.3094,9.4383-3.8825,12.9672-7.4817,37.0208-37.758,80.2348-67.4929,124.3077-96.0198,25.5668-16.5484,52.0248-31.7142,77.8904-47.8096,10.4381-6.4953,18.5965-5.0887,26.6117,4.2268,27.3999,31.8447,44.1063,69.0853,54.6712,109.1627,9.1856,34.845,14.4699,70.3989,14.7132,110.0858Z"/><path d="M407.1253,347.4766c-1.0137,9.1631-7.2835,9.8869-14.4036,6.4942-10.9825-5.233-18.484-14.5926-25.3369-24.2841-24.3113-34.3816-41.5536-72.516-58.3101-110.8777-5.7495-13.1628-11.1076-26.5002-16.4304-39.8433-1.5062-3.7757-4.4538-8.7605-.1148-11.6004,4.9257-3.2238,8.7291,1.6166,11.6435,4.9486,17.27,19.7441,32.752,40.8458,47.1497,62.7727,18.5917,28.3143,35.1835,57.7152,49.3757,88.4843,3.4182,7.4108,5.2674,15.1221,6.4268,23.9056Z"/></g></svg>