<?xml version="1.0" encoding="UTF-8"?><svg id="_图层_1" xmlns="http://www.w3.org/2000/svg" viewBox="0 0 876 224.1611"><g id="IJqOia.tif"><path d="M0,68.9775c1.8031-12.4523,5.6276-24.1503,12.2879-34.9388C20.2099,21.2066,30.4896,10.5936,42.1287,1.1815c.8441-.6826,1.938-1.8568,2.9478-.6804.898,1.046-.1693,2.148-.8862,3.0354-7.5605,9.3593-13.5006,19.6864-17.8927,30.8515-5.7603,14.6434-8.614,29.5284-2.9391,44.9955,3.3507,9.1326,9.4551,16.3554,15.6333,23.5782,10.1879,11.9104,23.2067,20.0179,36.6478,27.6282,8.4009,4.7566,9.6539,7.9013,7.6356,17.4198-1.6037,7.5634-4.839,14.5961-7.2558,21.8956-1.1676,3.5265-2.5305,7.0352-3.2136,10.6633-.8425,4.4748,1.4927,6.3374,5.8456,4.8518,2.6516-.9049,5.2129-2.1706,7.6675-3.5385,7.881-4.3919,14.8059-10.1291,21.7843-15.7814.4983-.4036.9562-.8668,1.4901-1.2144.8399-.5467,1.8002-1.43,2.7606-.6436.9559.7827.3588,1.9591-.0585,2.8528-2.5507,5.4628-5.0234,10.969-7.7861,16.3245-5.6502,10.9529-11.6403,21.7107-19.6859,31.1579-2.33,2.7359-4.6455,5.5131-7.8033,7.3479-6.5874,3.8273-13.4892,2.1558-17.6997-4.3828-5.7623-8.9484-7.3175-19.0951-7.7214-29.4226-.4142-10.5898,1.4452-20.9584,4.1961-31.1523,1.7634-6.5344,1.7934-6.3963-4.2774-9.7799-18.873-10.5189-34.5983-24.2475-44.5014-43.8984-3.9886-7.9145-5.7159-16.4215-7.0162-25.0675v-9.2445Z"/><path d="M227.4781,84.1442c-.2974,11.4579-1.7636,23.7727-6.6322,35.449-5.301,12.7133-15.1795,21.803-24.9576,30.8953-5.3478,4.9727-11.0449,9.5734-16.6435,14.2715-2.9342,2.4623-3.0945,5.0239-.8128,7.9971,4.3747,5.7006,8.7697,11.389,12.9968,17.1986,4.0805,5.608,7.9152,11.3877,10.2222,18.0165,1.6003,4.5983,2.0765,9.2489-1.501,13.055-3.7185,3.9561-8.6745,3.482-13.3619,2.2689-8.0513-2.0837-14.5845-6.9777-20.5429-12.4741-12.9729-11.9671-23.1781-26.3793-34.4828-39.8193-.5543-.6589-1.3696-1.4911-.4975-2.3376.7628-.7405,1.726-.1431,2.4962.2563,4.2153,2.1859,8.3657,4.5005,12.6164,6.6139,5.4009,2.6853,10.8526,5.2727,16.339,7.7784,1.1701.5344,2.7123,1.7762,3.8474.3375.8842-1.1208-.2471-2.4429-.8374-3.5364-5.0214-9.302-11.587-17.5487-17.8549-25.9975-.9024-1.2164-2.4253-2.3157-1.8356-3.9822.5842-1.6513,2.4037-1.1389,3.736-1.2963,18.4003-2.1748,32.8473-10.8488,43.4528-26.0722,8.8032-12.6364,10.04-26.7217,7.7108-41.2822-2.1083-13.1792-7.0554-25.4188-13.9994-36.8629-1.7363-2.8616-3.462-3.1682-6.6162-2.2999-10.8985,3.0003-19.0311,10.4622-27.9598,16.6427-3.6895,2.5539-7.1696,5.4085-10.7879,8.0679-2.7294,2.0061-4.8997,4.0261-5.3953,7.8852-.4766,3.7116-4.0607,5.7645-6.8343,8.0037q-4.847,3.9131-2.797,9.6042c8.3067,23.0627,7.0561,45.3402-5.6367,66.6306-2.8092,4.7121-4.3304,4.8238-7.2443.1927-8.5729-13.6249-12.4818-28.2689-9.6495-44.4406,1.3932-7.9547,2.2551-16.0011,3.5055-23.9829.5664-3.6155-.4415-6.3175-3.671-8.0932-5.7646-3.1697-7.1866-8.3383-6.6551-14.4023.3836-4.3767,1.3871-8.6798,2.8973-12.7396,2.8977-7.7902-.0918-13.7289-5.1794-19.1932-2.8801-3.0933-6.2105-5.7998-8.1595-9.6704-.9824-1.9509-2.3202-4.0596-.6351-6.0924,1.8408-2.2205,4.3298-1.316,6.384-.2923,7.572,3.7736,13.6236,8.5448,13.2815,18.3335-.1539,4.4038,1.4103,8.6015,5.6021,11.2091,2.2448,1.3964,1.7314,2.7737-.2263,4.0894-3.4917,2.3465-5.2795,5.9331-6.5214,9.7462-2.047,6.2853,2.8183,11.8573,9.3847,10.888,2.4249-.358,3.4355-2.0021,3.5913-4.3143.2353-3.4937-.2344-6.9138-.9991-10.3125-.2909-1.2932-.5021-2.9641,1.3581-2.9158,5.4764.1423,7.7267-4.0079,10.3464-7.5433,3.516-4.7451,6.8137-9.6463,11.2455-13.6317,1.0519-.9459,2.0262-1.9735,3.4369-2.3979,2.888-.8688,4.7492.3878,5.0773,3.409.6101,5.6174-2.9236,9.0848-6.6196,12.3142-2.7213,2.3778-5.4005,4.7433-7.3953,7.7765-1.0599,1.6116-2.5664,3.7779-.9656,5.1638,1.1595,1.0038,2.8628-1.1776,3.9331-2.2693,11.2289-11.4525,24.3363-20.4715,37.7043-29.1241,7.7548-5.0194,15.7798-9.6194,23.6252-14.5013,3.166-1.9701,5.6406-1.5435,8.0717,1.282,8.3108,9.6589,13.3781,20.9545,16.5825,33.1105,2.7861,10.569,4.3889,21.3529,4.4627,33.3906Z"/><path d="M86.1755,65.8181c-.3075,2.7793-2.2092,2.9988-4.3688,1.9698-3.3311-1.5872-5.6065-4.4262-7.685-7.3657-7.374-10.4284-12.6038-21.9951-17.6863-33.6307-1.7439-3.9924-3.3691-8.0379-4.9836-12.085-.4568-1.1452-1.3509-2.6572-.0348-3.5186,1.494-.9778,2.6476.4903,3.5316,1.501,5.2382,5.9887,9.9341,12.3891,14.3012,19.0398,5.6391,8.5881,10.6716,17.5058,14.9763,26.8385,1.0368,2.2478,1.5977,4.5867,1.9493,7.2509Z"/></g><rect x="319.6021" y="50.8017" width="21.8831" height="133.2016"/><path d="M433.9649,95.9951c-5.3285-3.4872-11.4173-5.2329-18.2674-5.2329-6.7259,0-12.7828,1.5546-18.1729,4.6616-3.5155,2.0273-6.5218,4.5473-9.0387,7.5432v-10.3019h-20.9317v91.3382h20.9317v-52.7093c0-4.0585.8856-7.6742,2.6642-10.8471,1.7744-3.1697,4.2486-5.6428,7.4214-7.4214,3.1686-1.7744,6.7843-2.6632,10.846-2.6632,6.0888,0,11.0669,1.9677,14.9374,5.8987,3.8684,3.9332,5.8042,8.9431,5.8042,15.033v52.7093h20.9317v-57.2765c0-5.9614-1.5227-11.7029-4.5671-17.2215s-7.2314-10.0199-12.5588-13.5102Z"/><path d="M509.9835,68.7835c2.7269-2.7258,6.6282-4.0903,11.7029-4.0903,2.7895,0,5.0726.446,6.8502,1.3316,1.7755.8888,3.4256,2.093,4.9483,3.6157l13.5102-13.5102c-3.4256-3.5509-7.1061-6.2799-11.0371-8.1828-3.9332-1.9029-8.6904-2.8543-14.2716-2.8543-7.2303,0-13.6058,1.5227-19.1233,4.5671-5.5186,3.0444-9.833,7.2303-12.94,12.5588-3.1102,5.3285-4.6616,11.4831-4.6616,18.4575v11.9886h-21.8831v19.0288h21.8831v72.3094h20.9317v-72.3094h27.5918v-19.0288h-27.5918v-12.1786c0-5.0726,1.3613-8.9728,4.0903-11.7029Z"/><path d="M615.3076,97.0421c-7.2314-4.187-15.3505-6.2799-24.3573-6.2799-8.8794,0-16.9348,2.1259-24.1661,6.3744-7.2314,4.2517-12.9719,9.9275-17.2204,17.0314-4.2517,7.1061-6.3744,15.0977-6.3744,23.9761s2.1227,16.9358,6.3744,24.1661c4.2486,7.2314,9.9891,12.9729,17.2204,17.2215,7.2314,4.2517,15.2867,6.3744,24.1661,6.3744,9.0068,0,17.1259-2.1227,24.3573-6.3744,7.2314-4.2486,12.9697-9.9901,17.2215-17.2215,4.2496-7.2303,6.3755-15.2857,6.3755-24.1661s-2.1259-16.9029-6.3755-24.0716c-4.2517-7.1655-9.9901-12.8444-17.2215-17.0303ZM614.0716,152.4157c-2.2214,4.1859-5.3285,7.4533-9.3254,9.8-3.9948,2.3489-8.5948,3.5201-13.7959,3.5201-5.0736,0-9.6078-1.1712-13.6047-3.5201-3.9969-2.3467-7.1061-5.6141-9.3233-9.8-2.2214-4.187-3.33-8.9442-3.33-14.2716s1.1086-10.0199,3.33-14.0815c2.2172-4.0585,5.3264-7.2611,9.3233-9.61,3.9969-2.3457,8.5311-3.5201,13.6047-3.5201,5.2011,0,9.7671,1.1744,13.7024,3.5201,3.9289,2.3489,7.0402,5.5515,9.3233,9.61,2.283,4.0617,3.4256,8.753,3.4256,14.0815s-1.1128,10.0846-3.33,14.2716Z"/><path d="M740.2298,161.2643c-5.646,2.4731-12.5291,3.7102-20.646,3.7102-6.5974,0-12.6246-1.1415-18.0774-3.4256-5.4559-2.283-10.1802-5.5472-14.1771-9.799-3.9958-4.2496-7.0731-9.2914-9.2288-15.1285-2.1588-5.8329-3.2345-12.2402-3.2345-19.2189s1.0757-13.3828,3.2345-19.2189c2.1556-5.8339,5.2329-10.8768,9.2288-15.1285,3.9969-4.2486,8.7212-7.5159,14.1771-9.799,5.4527-2.2841,11.4799-3.4256,18.0774-3.4256,7.483,0,14.0486,1.2074,19.6946,3.6157,5.6428,2.4115,10.4329,5.7734,14.3672,10.0846l14.8418-14.8418c-6.0888-6.0899-13.0674-10.9086-20.9317-14.4617-7.8674-3.5509-17.1907-5.3285-27.9719-5.3285-9.6429,0-18.5531,1.7776-26.7359,5.3285-8.1817,3.553-15.3175,8.4377-21.4074,14.6517-6.0888,6.2173-10.7833,13.4805-14.0815,21.7875-3.3003,8.3102-4.9473,17.2215-4.9473,26.7359s1.647,18.4278,4.9473,26.7359c3.2982,8.3102,7.9927,15.6032,14.0815,21.8831,6.0899,6.2789,13.2257,11.1646,21.4074,14.6517,8.1828,3.4872,17.093,5.2329,26.7359,5.2329,10.6559,0,20.1045-1.7776,28.3531-5.3285,8.2444-3.5498,15.4131-8.4345,21.5019-14.6517l-14.8418-14.8429c-3.9342,4.3144-8.7244,7.7071-14.3672,10.1813Z"/><path d="M869.6245,114.0724c-4.2517-7.1655-9.9901-12.8444-17.2204-17.0303-7.2314-4.187-15.3515-6.2799-24.3573-6.2799-8.8805,0-16.9358,2.1259-24.1661,6.3744-7.2314,4.2517-12.9729,9.9275-17.2215,17.0314-4.2517,7.1061-6.3744,15.0977-6.3744,23.9761s2.1227,16.9358,6.3744,24.1661c4.2486,7.2314,9.9901,12.9729,17.2215,17.2215,7.2303,4.2517,15.2857,6.3744,24.1661,6.3744,9.0058,0,17.1259-2.1227,24.3573-6.3744,7.2303-4.2486,12.9687-9.9901,17.2204-17.2215,4.2496-7.2303,6.3755-15.2857,6.3755-24.1661s-2.1259-16.9029-6.3755-24.0716ZM851.167,152.4157c-2.2214,4.1859-5.3285,7.4533-9.3243,9.8-3.9958,2.3489-8.5959,3.5201-13.7959,3.5201-5.0747,0-9.6089-1.1712-13.6058-3.5201-3.9958-2.3467-7.1061-5.6141-9.3233-9.8-2.2214-4.187-3.33-8.9442-3.33-14.2716s1.1086-10.0199,3.33-14.0815c2.2172-4.0585,5.3274-7.2611,9.3233-9.61,3.9969-2.3457,8.5311-3.5201,13.6058-3.5201,5.2,0,9.7671,1.1744,13.7014,3.5201,3.93,2.3489,7.0402,5.5515,9.3233,9.61,2.2841,4.0617,3.4256,8.753,3.4256,14.0815s-1.1118,10.0846-3.33,14.2716Z"/></svg>